<?xml version="1.0" encoding="UTF-8"?>
<!-- Generator: Adobe Illustrator 24.1.1, SVG Export Plug-In . SVG Version: 6.00 Build 0)  -->
<svg version="1.1" id="Layer_1" xmlns="http://www.w3.org/2000/svg" xmlns:xlink="http://www.w3.org/1999/xlink" x="0px" y="0px" viewBox="0 0 637.9 209.7" style="enable-background:new 0 0 637.9 209.7;" xml:space="preserve">
<style type="text/css">
	.st0{fill:#15362B;}
	.st1{fill:#A1B500;}
	.st2{fill:#112B33;}
	.st3{fill:#999E35;}
	.st4{fill:none;}
	.st5{fill:#B2C22D;}
	.st6{fill:#A3A915;}
	.st7{fill:#ACB728;}
</style>
<g>
	<g>
		<path class="st0" d="M142.3,137.1c-2.9-0.9-5.1-1.9-6.6-2.9l1.1-8.7c1.3,1.2,3.4,2.3,6.1,3.4c2.8,1.1,5.8,1.6,9.1,1.6    c3.1,0,5.5-0.5,7.2-1.6c1.7-1.1,2.5-2.6,2.5-4.5c0-2.3-0.9-4-2.8-5.1c-1.9-1.2-4.2-2.1-7-2.9c-3.1-0.8-5.6-1.6-7.7-2.5    c-2.1-0.9-3.9-2.3-5.4-4.1c-1.5-1.9-2.2-4.3-2.2-7.4c0-4.2,1.5-7.7,4.5-10.5c3-2.8,7.6-4.2,13.9-4.2c2.9,0,5.3,0.3,7.3,0.8    c2,0.6,4,1.3,6,2.3l-1.1,8.2c-1.6-1.3-3.4-2.4-5.3-3.1c-1.9-0.8-4.2-1.1-6.7-1.1c-2.9,0-5.2,0.5-6.9,1.6s-2.5,2.7-2.5,4.9    c0,1.5,0.4,2.6,1.2,3.5c0.8,0.9,1.9,1.6,3.4,2.2c1.5,0.6,3.7,1.4,6.8,2.3c3.8,1.1,7.1,2.7,9.8,4.8c2.8,2.1,4.1,5.3,4.1,9.8    c0,4-1.4,7.4-4.2,10.3c-2.8,2.9-7.6,4.3-14.4,4.3C148.6,138.4,145.2,138,142.3,137.1z"/>
		<path class="st0" d="M189.1,135c-4-2.3-7-5.4-9-9.3c-2.1-3.9-3.1-8.3-3.1-13.1c0-4.6,0.9-8.8,2.8-12.6c1.9-3.8,4.7-6.9,8.3-9.1    c3.6-2.2,7.9-3.3,12.8-3.3c6.3,0,11.3,1.8,15.2,5.5c3.9,3.7,5.8,8.7,5.8,15.2c0,1.7-0.1,3.3-0.4,4.8h-35.5    c0.6,6.3,2.5,10.8,5.8,13.5c3.3,2.7,7.5,4,12.6,4c5.1,0,9.8-1,14.1-2.9l1.2,7.1c-5.7,2.5-11.1,3.8-16.4,3.8    C197.9,138.4,193.1,137.3,189.1,135z M212.8,106.7c0-3.5-1-6.3-3-8.3c-2-2-5-3-9-3c-3.9,0-6.9,0.9-9.1,2.8    c-2.2,1.9-3.8,4.7-4.7,8.4H212.8z"/>
		<path class="st0" d="M231.1,88.4h7l1,5.2c2.6-2.3,5.2-3.9,7.8-4.8c2.6-0.9,5.4-1.3,8.3-1.3c13.3,0,20,7.7,20,23v27h-9v-27    c0-5.3-1-9.1-2.9-11.4c-2-2.4-5.2-3.5-9.8-3.5c-2.9,0-5.6,0.5-8,1.6c-2.4,1.1-4.2,2.7-5.4,4.8v35.6h-9V88.4z"/>
		<path class="st0" d="M293.5,135c-2.1-2.3-3.1-5-3.1-8.3V95.4h-8.4l0.8-7h7.6V76.3l9-0.9v13h12.9v7h-12.9v25.8c0,3.4,0.2,5.7,0.6,7    c0.4,1.3,1.2,2.1,2.5,2.4c1.3,0.4,3.7,0.5,7.1,0.5h2.3l-0.7,7.2h-8.1C298.8,138.4,295.6,137.3,293.5,135z"/>
		<path class="st0" d="M319.9,67.4h9v10h-9V67.4z M319.9,88.4h9v49h-9V88.4z"/>
		<path class="st0" d="M341.1,88.4h7l1,5.2c2.6-2.3,5.2-3.9,7.8-4.8c2.6-0.9,5.4-1.3,8.3-1.3c13.3,0,20,7.7,20,23v27h-9v-27    c0-5.3-1-9.1-2.9-11.4c-2-2.4-5.2-3.5-9.8-3.5c-2.9,0-5.6,0.5-8,1.6c-2.4,1.1-4.2,2.7-5.4,4.8v35.6h-9V88.4z"/>
		<path class="st0" d="M406.1,135c-4-2.3-7-5.4-9-9.3c-2.1-3.9-3.1-8.3-3.1-13.1c0-4.6,1-8.8,2.8-12.6c1.9-3.8,4.7-6.9,8.3-9.1    c3.6-2.2,7.9-3.3,12.8-3.3c6.3,0,11.3,1.8,15.2,5.5c3.9,3.7,5.8,8.7,5.8,15.2c0,1.7-0.1,3.3-0.4,4.8h-35.5    c0.6,6.3,2.5,10.8,5.8,13.5c3.3,2.7,7.5,4,12.6,4c5.1,0,9.8-1,14.1-2.9l1.2,7.1c-5.7,2.5-11.1,3.8-16.4,3.8    C414.9,138.4,410.1,137.3,406.1,135z M429.8,106.7c0-3.5-1-6.3-3-8.3c-2-2-5-3-9-3c-3.9,0-6.9,0.9-9.1,2.8    c-2.2,1.9-3.8,4.7-4.7,8.4H429.8z"/>
		<path class="st0" d="M451.1,135c-2-2.3-3-5.1-3-8.4V62.4h9v59c0,2.9,0.2,5.1,0.5,6.4c0.4,1.3,1.1,2.2,2.1,2.7    c1.1,0.5,2.8,0.7,5.2,0.7l-1.3,7.2h-2.9C456.4,138.4,453.1,137.3,451.1,135z"/>
		<path class="st1" d="M509.3,93.5c3.3,4.1,4.9,9.6,4.9,16.6v27.3h-9v-26.2c0-5.4-1-9.4-2.9-11.9c-2-2.6-5-3.8-9.1-3.8    c-2.5,0-4.9,0.6-7,1.7c-2.1,1.2-3.9,2.8-5.4,4.9v35.3h-9.1v-75h9.1v30.7c1.9-1.9,4-3.3,6.3-4.2c2.3-1,5-1.4,8-1.4    C501.3,87.4,506.1,89.5,509.3,93.5z"/>
		<path class="st1" d="M530.1,133.1c-3.1-3.6-4.6-8.9-4.6-16.1V88.4h9v26c0,5.3,0.9,9.3,2.7,12c1.8,2.7,4.7,4,8.6,4    c2.4,0,4.6-0.5,6.6-1.4c2-0.9,3.6-2.3,4.7-4.2V88.4h9v49h-8l-1-5.4c-1.6,2.2-3.5,3.8-5.6,4.8c-2.2,1-4.8,1.5-7.9,1.5    C537.7,138.4,533.2,136.6,530.1,133.1z"/>
		<path class="st1" d="M614,90.9c3.4,2.3,5.9,5.4,7.7,9.3c1.8,3.9,2.7,8.1,2.7,12.6c0,4.7-1,8.9-2.9,12.8c-2,3.9-4.6,7-8,9.2    c-3.4,2.3-7.1,3.4-11.1,3.4c-3,0-5.9-0.6-8.7-1.8s-5-2.9-6.5-5.1l-1,6h-8v-75h9v31.7c1.8-2.1,4-3.7,6.7-4.9    c2.7-1.2,5.5-1.8,8.4-1.8C606.8,87.4,610.7,88.6,614,90.9z M611.4,125.4c2.6-3.4,3.8-7.5,3.8-12.4c0-5.1-1.3-9.2-3.8-12.5    c-2.6-3.3-5.9-4.9-10.1-4.9c-4.1,0-7.6,1.5-10.4,4.5c-2.8,3-4.2,7.3-4.2,12.9c0,5.8,1.4,10.2,4.1,13.1c2.8,2.9,6.2,4.4,10.4,4.4    C605.5,130.4,608.9,128.7,611.4,125.4z"/>
	</g>
</g>
<g>
	<g>
		<g>
			<polygon class="st2" points="611.2,168.6 611.2,159.6 619.6,159.6 619.6,158.2 611.2,158.2 611.2,150.3 620.1,150.3 620.1,148.8      620,148.8 609.5,148.8 609.5,170.1 620.6,170.1 620.6,168.6    "/>
			<path class="st2" d="M593.5,158.3c-3.2-1.2-4.3-2.4-4.3-4.6c0-1.4,0.9-3.7,4.4-3.7c1.7,0,3,0.5,3.6,1l0.1,0.1l0.7-1.5l-0.1-0.1     c-0.8-0.5-2.3-1-4.2-1c-3.6,0-6.2,2.3-6.2,5.5c0,2.7,1.7,4.6,5.5,5.9c3,1.2,4.2,2.5,4.2,4.8c0,2.6-1.9,4.3-4.9,4.3     c-1.6,0-3.3-0.5-4.6-1.4l-0.1-0.1l-0.7,1.5l0.1,0.1c1.1,0.8,3.3,1.5,5.1,1.5c4.7,0,6.8-3,6.8-5.9     C598.8,161.2,596.7,159.6,593.5,158.3"/>
			<polygon class="st2" points="574.7,148.8 574.7,170.1 576.4,170.1 576.4,148.8 576.3,148.8    "/>
			<path class="st2" d="M557.1,160.9h4.9v7.2c-0.5,0.3-1.8,0.7-4.3,0.7c-5.5,0-8.9-3.6-8.9-9.3c0-5.8,3.5-9.3,9.2-9.3     c1.8,0,3.2,0.3,4.4,0.9l0.1,0.1l0.6-1.5l-0.1,0c-0.3-0.2-2.2-1-4.9-1c-7.6,0-11.1,5.5-11.1,10.9c0,3.3,1.1,6.2,2.9,8     c1.9,1.9,4.4,2.8,7.5,2.8c2.9,0,5.1-0.7,6.2-1.2l0.1,0l0-9.7h-6.6V160.9z"/>
			<path class="st2" d="M538.4,169.9c-0.4-0.8-0.8-2.2-1.6-5.6c-0.5-2.4-1.6-3.9-3.2-4.5c2.6-1,4-2.9,4-5.5c0-1.5-0.6-2.9-1.5-3.8     c-1.3-1.2-3.1-1.8-5.8-1.8c-1.5,0-3.3,0.2-4.5,0.4l-0.1,0v21h1.7v-9.6h3.2c2.6,0.1,4,1.4,4.6,4.4c0.6,2.8,1.1,4.6,1.3,5.1l0,0.1     h1.8L538.4,169.9z M527.5,159v-8.6c0.3-0.1,1.3-0.3,2.9-0.3c2.5,0,5.6,0.8,5.6,4.4c0,1.3-0.5,2.4-1.4,3.2     c-0.9,0.8-2.3,1.2-3.8,1.2H527.5z"/>
			<polygon class="st2" points="506.2,159.6 514.6,159.6 514.6,158.2 506.2,158.2 506.2,150.3 515.1,150.3 515.1,148.8 515,148.8      504.5,148.8 504.5,170.1 515.6,170.1 515.6,168.6 506.2,168.6    "/>
			<path class="st2" d="M491.1,148.8v10.6c0,3.4,0,5.6,0.2,8.2c-1-1.9-2.1-3.7-3.8-6.3l-8.2-12.5h-1.6v21.3h1.7v-10.8     c0-3.3,0-5.5-0.2-8c1,2,2.3,4,3.7,6.2l0.2,0.4l8.1,12.3h1.6v-21.3h-0.1H491.1z"/>
			<polygon class="st2" points="464.3,148.8 464.3,170.1 466,170.1 466,148.8 465.9,148.8    "/>
			<path class="st2" d="M448.3,158.3c-3.2-1.2-4.3-2.4-4.3-4.6c0-1.4,0.9-3.7,4.4-3.7c1.7,0,3,0.5,3.6,1l0.1,0.1l0.7-1.5l-0.1-0.1     c-0.8-0.5-2.3-1-4.2-1c-3.6,0-6.2,2.3-6.2,5.5c0,2.7,1.7,4.6,5.5,5.9c3,1.2,4.2,2.5,4.2,4.8c0,2.6-1.9,4.3-4.9,4.3     c-1.6,0-3.3-0.5-4.6-1.4l-0.1-0.1l-0.7,1.5l0.1,0.1c1.1,0.8,3.3,1.5,5.1,1.5c4.7,0,6.8-3,6.8-5.9     C453.7,161.2,451.5,159.6,448.3,158.3"/>
		</g>
		<path class="st2" d="M398.4,148.2h1.5v9.9h0.1c1-1.9,2.8-3.1,5.4-3.1c3.8,0,6.4,3.1,6.4,7.6c0,5.3-3.4,7.9-6.6,7.9    c-2.4,0-4.1-1-5.3-3h-0.1l-0.1,2.7h-1.3c0.1-1.1,0.1-2.3,0.1-3.5V148.2z M399.9,164.4c0,0.3,0,0.7,0.1,1.1    c0.6,2.3,2.6,3.7,4.9,3.7c3.4,0,5.3-2.8,5.3-6.6c0-3.4-1.9-6.4-5.2-6.4c-2.2,0-4.2,1.5-4.9,4c-0.1,0.4-0.2,0.8-0.2,1.3V164.4z"/>
		<path class="st2" d="M414.7,155.3l3.9,9.7c0.4,1.1,0.8,2.3,1.1,3.2h0.1c0.3-0.9,0.7-2.1,1.1-3.3l3.6-9.6h1.6l-4.4,11.1    c-1.8,4.6-3.1,7.3-5,9c-1.2,1-2.2,1.4-2.6,1.5l-0.5-1.2c0.7-0.3,1.7-0.8,2.6-1.6c0.7-0.7,1.7-2,2.5-3.7c0.1-0.3,0.2-0.5,0.2-0.6    c0-0.1-0.1-0.3-0.2-0.6l-5.5-13.7H414.7z"/>
	</g>
</g>
<g>
	<path class="st3" d="M83,61L83,61c1.8,0.7,2.8,1.3,4.4,2.2l0.1,0.1c0.1,0.1,0.3,0.2,0.4,0.2c2.8,1.6,5.5,3.5,7.9,5.7   c2.3,2.1,4.5,4.4,6.4,6.9c1.9,2.5,3.5,5.1,4.8,7.9c1.3,2.8,2.4,5.7,3.2,8.6c0.8,3,1.3,6,1.5,9.1c0.2,3.1,0.1,6.2-0.2,9.3   c-0.4,3.1-1.1,6.2-2.1,9.2c-1,3.1-2.4,6-4,8.9l-38.8,67.1l-27.7-16l37-64c0.6-1,1.3-2.1,1.9-3.1c6.4-11,10.4-22.5,11.4-32.3   c0.5-4.8,0.2-8.9-0.7-12.2c-1-3.5-2.8-5.9-5.3-7.4C83.2,61.1,83.1,61,83,61L83,61L83,61z"/>
	<g>
		<path class="st4" d="M111.8,101.7c-0.2-3.1-0.7-6.1-1.5-9.1c-0.8-3-1.9-5.9-3.2-8.6c-1.4-2.8-3-5.4-4.8-7.9    c-1.9-2.5-4-4.8-6.4-6.9c-2.4-2.1-5.1-4-7.9-5.7c-0.1-0.1-0.3-0.2-0.4-0.2l-0.1-0.1c-1.6-1-2.6-1.5-4.4-2.2h0l0,0l0,0    c0.1,0,0.2,0.1,0.3,0.1c2.5,1.4,4.3,3.9,5.3,7.4c1,3.3,1.2,7.4,0.7,12.2c-1,9.8-5.1,21.2-11.4,32.3c-0.6,1.1-1.2,2.1-1.9,3.1    l-15.2,26.3c11.3,1,21.5,5.9,29.2,13.4l15.5-26.8c1.6-2.8,3-5.8,4-8.9c1-3,1.7-6.1,2.1-9.2C111.9,107.9,112,104.8,111.8,101.7z"/>
		<path class="st5" d="M39,180.1l27.7,16L90,155.8c-7.7-7.5-17.9-12.4-29.2-13.4L39,180.1z"/>
	</g>
	<g>
		<path class="st4" d="M110.6,94.1c-0.1-0.5-0.2-1-0.3-1.5c-0.8-3-1.9-5.9-3.2-8.6c-1.4-2.8-3-5.4-4.8-7.9c-1.9-2.5-4-4.8-6.4-6.9    c-2.4-2.1-5.1-4-7.9-5.7c-0.1-0.1-0.3-0.2-0.4-0.2l-0.1-0.1c-1.6-1-2.6-1.5-4.4-2.2h0l0,0l0,0c0.1,0,0.2,0.1,0.3,0.1    c2.5,1.4,4.3,3.9,5.3,7.4c0.5,1.8,0.8,3.9,0.9,6.2C98.3,78.9,105.7,85.7,110.6,94.1z"/>
		<path class="st4" d="M69.3,165.4c-6.9,0-13.5-1.5-19.4-4.2L39,180.1l27.7,16l19.5-33.8C80.9,164.3,75.3,165.4,69.3,165.4z"/>
		<path class="st6" d="M86.2,162.3l19.3-33.3c1.6-2.8,3-5.8,4-8.9c1-3,1.7-6.1,2.1-9.2c0.4-3.1,0.5-6.2,0.2-9.3    c-0.2-2.5-0.6-5.1-1.2-7.6c-4.9-8.4-12.2-15.2-21.1-19.3c0.1,1.9,0,3.8-0.2,6c-1,9.8-5.1,21.2-11.4,32.3c-0.6,1.1-1.2,2.1-1.9,3.1    l-26.1,45.1c5.9,2.7,12.5,4.2,19.4,4.2C75.3,165.4,80.9,164.3,86.2,162.3z"/>
	</g>
	<g>
		<path class="st4" d="M111.8,101.7c-0.2-2.5-0.6-5.1-1.2-7.6c-4.9-8.4-12.2-15.2-21.1-19.3c0.1,1.9,0,3.8-0.2,6    c-0.1,1.1-0.3,2.3-0.5,3.5c11.4,7.4,19.4,19.6,21.2,33.8c0.7-2.3,1.2-4.7,1.5-7C111.9,107.9,112,104.8,111.8,101.7z"/>
		<path class="st7" d="M88.8,84.2c-1.5,9-5.3,19-11,28.8c-0.6,1.1-1.2,2.1-1.9,3.1l-26.1,45.1c5.9,2.7,12.5,4.2,19.4,4.2    c5.9,0,11.6-1.1,16.9-3.1l19.3-33.3c1.6-2.8,3-5.8,4-8.9c0.2-0.7,0.4-1.4,0.6-2.1C108.2,103.8,100.2,91.7,88.8,84.2z"/>
	</g>
	<g>
		<path class="st4" d="M88.8,84.2c-0.6,3.4-1.5,7-2.7,10.6c8.6,8.6,14,20.5,14,33.7c0,4.5-0.7,8.7-1.8,12.8l7.2-12.4    c1.6-2.8,3-5.8,4-8.9c0.2-0.7,0.4-1.4,0.6-2.1C108.2,103.8,100.2,91.7,88.8,84.2z"/>
		<path class="st4" d="M85.9,162.4c0.1,0,0.2-0.1,0.3-0.1l0.3-0.4C86.3,162,86.1,162.2,85.9,162.4z"/>
		<path class="st5" d="M86.1,94.9c-2,5.9-4.8,12.1-8.2,18.1c-0.6,1.1-1.2,2.1-1.9,3.1l-26.1,45.1c5.9,2.7,12.5,4.2,19.4,4.2    c5.8,0,11.4-1.1,16.6-3c0.2-0.2,0.3-0.4,0.5-0.5l11.8-20.5c1.1-4.1,1.8-8.4,1.8-12.8C100.1,115.4,94.7,103.5,86.1,94.9z"/>
	</g>
	<g>
		<path class="st4" d="M88.8,84.2c-0.6,3.4-1.5,7-2.7,10.6c8.6,8.6,14,20.5,14,33.7c0,4.5-0.7,8.7-1.8,12.8l7.2-12.4    c1.6-2.8,3-5.8,4-8.9c0.2-0.7,0.4-1.4,0.6-2.1C108.2,103.8,100.2,91.7,88.8,84.2z"/>
		<path class="st4" d="M85.9,162.4c0.1,0,0.2-0.1,0.3-0.1l0.3-0.4C86.3,162,86.1,162.2,85.9,162.4z"/>
		<path class="st5" d="M86.1,94.9c-2,5.9-4.8,12.1-8.2,18.1c-0.6,1.1-1.2,2.1-1.9,3.1l-26.1,45.1c5.9,2.7,12.5,4.2,19.4,4.2    c5.8,0,11.4-1.1,16.6-3c0.2-0.2,0.3-0.4,0.5-0.5l11.8-20.5c1.1-4.1,1.8-8.4,1.8-12.8C100.1,115.4,94.7,103.5,86.1,94.9z"/>
	</g>
	<g>
		<path class="st3" d="M44.9,148.1L44.9,148.1c-1.8-0.7-2.8-1.3-4.4-2.2l-0.1-0.1c-0.1-0.1-0.3-0.2-0.4-0.2    c-2.8-1.6-5.5-3.5-7.9-5.7c-2.3-2.1-4.5-4.4-6.4-6.9c-1.9-2.5-3.5-5.1-4.8-7.9c-1.3-2.8-2.4-5.7-3.2-8.6c-0.8-3-1.3-6-1.5-9.1    c-0.2-3.1-0.1-6.2,0.2-9.3c0.4-3.1,1.1-6.2,2.1-9.2c1-3.1,2.4-6,4-8.9L61.2,13l27.7,16l-37,64c-0.6,1-1.3,2.1-1.9,3.1    c-6.4,11-10.4,22.5-11.4,32.3c-0.5,4.8-0.2,8.9,0.7,12.2c1,3.5,2.8,5.9,5.3,7.4C44.7,148,44.8,148,44.9,148.1L44.9,148.1    L44.9,148.1z"/>
		<g>
			<path class="st4" d="M16.2,107.4c0.2,3.1,0.7,6.1,1.5,9.1c0.8,3,1.9,5.9,3.2,8.6c1.4,2.8,3,5.4,4.8,7.9c1.9,2.5,4,4.8,6.4,6.9     c2.4,2.1,5.1,4,7.9,5.7c0.1,0.1,0.3,0.2,0.4,0.2l0.1,0.1c1.6,1,2.6,1.5,4.4,2.2h0l0,0l0,0c-0.1,0-0.2-0.1-0.3-0.1     c-2.5-1.4-4.3-3.9-5.3-7.4c-1-3.3-1.2-7.4-0.7-12.2c1-9.8,5.1-21.2,11.4-32.3c0.6-1.1,1.2-2.1,1.9-3.1l15.2-26.3     c-11.3-1-21.5-5.9-29.2-13.4L22.5,80.1c-1.6,2.8-3,5.8-4,8.9c-1,3-1.7,6.1-2.1,9.2C16,101.2,15.9,104.3,16.2,107.4z"/>
			<path class="st5" d="M88.9,28.9L61.2,13L37.9,53.3c7.7,7.5,17.9,12.4,29.2,13.4L88.9,28.9z"/>
		</g>
		<g>
			<path class="st4" d="M17.4,115c0.1,0.5,0.2,1,0.3,1.5c0.8,3,1.9,5.9,3.2,8.6c1.4,2.8,3,5.4,4.8,7.9c1.9,2.5,4,4.8,6.4,6.9     c2.4,2.1,5.1,4,7.9,5.7c0.1,0.1,0.3,0.2,0.4,0.2l0.1,0.1c1.6,1,2.6,1.5,4.4,2.2h0l0,0l0,0c-0.1,0-0.2-0.1-0.3-0.1     c-2.5-1.4-4.3-3.9-5.3-7.4c-0.5-1.8-0.8-3.9-0.9-6.2C29.6,130.2,22.2,123.4,17.4,115z"/>
			<path class="st4" d="M58.6,43.6c6.9,0,13.5,1.5,19.4,4.2l10.9-18.9L61.2,13L41.7,46.8C47,44.8,52.6,43.6,58.6,43.6z"/>
			<path class="st6" d="M41.7,46.8L22.5,80.1c-1.6,2.8-3,5.8-4,8.9c-1,3-1.7,6.1-2.1,9.2c-0.4,3.1-0.5,6.2-0.2,9.3     c0.2,2.5,0.6,5.1,1.2,7.6c4.9,8.4,12.2,15.2,21.1,19.3c-0.1-1.9,0-3.8,0.2-6c1-9.8,5.1-21.2,11.4-32.3c0.6-1.1,1.2-2.1,1.9-3.1     L78,47.8c-5.9-2.7-12.5-4.2-19.4-4.2C52.6,43.6,47,44.8,41.7,46.8z"/>
		</g>
		<g>
			<path class="st4" d="M16.2,107.4c0.2,2.5,0.6,5.1,1.2,7.6c4.9,8.4,12.2,15.2,21.1,19.3c-0.1-1.9,0-3.8,0.2-6     c0.1-1.1,0.3-2.3,0.5-3.5c-11.4-7.4-19.4-19.6-21.2-33.8c-0.7,2.3-1.2,4.7-1.5,7C16,101.2,15.9,104.3,16.2,107.4z"/>
			<path class="st7" d="M39.1,124.9c1.5-9,5.3-19,11-28.8c0.6-1.1,1.2-2.1,1.9-3.1L78,47.8c-5.9-2.7-12.5-4.2-19.4-4.2     c-5.9,0-11.6,1.1-16.9,3.1L22.5,80.1c-1.6,2.8-3,5.8-4,8.9c-0.2,0.7-0.4,1.4-0.6,2.1C19.7,105.2,27.7,117.4,39.1,124.9z"/>
		</g>
		<g>
			<path class="st4" d="M39.1,124.9c0.6-3.4,1.5-7,2.7-10.6c-8.6-8.6-14-20.5-14-33.7c0-4.5,0.7-8.7,1.8-12.8l-7.2,12.4     c-1.6,2.8-3,5.8-4,8.9c-0.2,0.7-0.4,1.4-0.6,2.1C19.7,105.2,27.7,117.4,39.1,124.9z"/>
			<path class="st4" d="M42,46.7c-0.1,0-0.2,0.1-0.3,0.1l-0.3,0.4C41.6,47,41.8,46.9,42,46.7z"/>
			<path class="st5" d="M41.8,114.2c2-5.9,4.8-12.1,8.2-18.1c0.6-1.1,1.2-2.1,1.9-3.1L78,47.8c-5.9-2.7-12.5-4.2-19.4-4.2     c-5.8,0-11.4,1.1-16.6,3c-0.2,0.2-0.3,0.4-0.5,0.5L29.6,67.7c-1.1,4.1-1.8,8.4-1.8,12.8C27.8,93.7,33.2,105.6,41.8,114.2z"/>
		</g>
		<g>
			<path class="st4" d="M39.1,124.9c0.6-3.4,1.5-7,2.7-10.6c-8.6-8.6-14-20.5-14-33.7c0-4.5,0.7-8.7,1.8-12.8l-7.2,12.4     c-1.6,2.8-3,5.8-4,8.9c-0.2,0.7-0.4,1.4-0.6,2.1C19.7,105.2,27.7,117.4,39.1,124.9z"/>
			<path class="st4" d="M42,46.7c-0.1,0-0.2,0.1-0.3,0.1l-0.3,0.4C41.6,47,41.8,46.9,42,46.7z"/>
			<path class="st5" d="M41.8,114.2c2-5.9,4.8-12.1,8.2-18.1c0.6-1.1,1.2-2.1,1.9-3.1L78,47.8c-5.9-2.7-12.5-4.2-19.4-4.2     c-5.8,0-11.4,1.1-16.6,3c-0.2,0.2-0.3,0.4-0.5,0.5L29.6,67.7c-1.1,4.1-1.8,8.4-1.8,12.8C27.8,93.7,33.2,105.6,41.8,114.2z"/>
		</g>
	</g>
</g>
</svg>